<mxfile host="app.diagrams.net" modified="2023-01-06T16:16:14.704Z" agent="5.0 (Macintosh)" version="20.8.1" etag="L36xKmyt1bQ0Z-UDjQ7V" type="github">
  <diagram id="x7SbrQKwoTWFsBNvxN8N" name="Page-1">
    <mxGraphModel dx="2074" dy="1129" grid="1" gridSize="10" guides="1" tooltips="1" connect="1" arrows="1" fold="1" page="1" pageScale="1" pageWidth="850" pageHeight="1100" math="0" shadow="0">
      <root>
        <mxCell id="0" />
        <mxCell id="1" parent="0" />
        <mxCell id="OWnge9xjrQDeGFIIFr42-1" value="Pool" style="swimlane;html=1;childLayout=stackLayout;resizeParent=1;resizeParentMax=0;horizontal=0;startSize=20;horizontalStack=0;" vertex="1" parent="1">
          <mxGeometry x="80" y="120" width="450" height="480" as="geometry" />
        </mxCell>
        <mxCell id="OWnge9xjrQDeGFIIFr42-2" value="" style="edgeStyle=orthogonalEdgeStyle;rounded=0;orthogonalLoop=1;jettySize=auto;html=1;dashed=1;endArrow=none;endFill=0;" edge="1" parent="OWnge9xjrQDeGFIIFr42-1" source="OWnge9xjrQDeGFIIFr42-9" target="OWnge9xjrQDeGFIIFr42-15">
          <mxGeometry relative="1" as="geometry" />
        </mxCell>
        <mxCell id="OWnge9xjrQDeGFIIFr42-3" style="edgeStyle=orthogonalEdgeStyle;rounded=0;orthogonalLoop=1;jettySize=auto;html=1;endArrow=classic;endFill=1;" edge="1" parent="OWnge9xjrQDeGFIIFr42-1" source="OWnge9xjrQDeGFIIFr42-16" target="OWnge9xjrQDeGFIIFr42-11">
          <mxGeometry relative="1" as="geometry" />
        </mxCell>
        <mxCell id="OWnge9xjrQDeGFIIFr42-4" style="edgeStyle=orthogonalEdgeStyle;rounded=0;orthogonalLoop=1;jettySize=auto;html=1;endArrow=classic;endFill=1;" edge="1" parent="OWnge9xjrQDeGFIIFr42-1" source="OWnge9xjrQDeGFIIFr42-16" target="OWnge9xjrQDeGFIIFr42-19">
          <mxGeometry relative="1" as="geometry" />
        </mxCell>
        <mxCell id="OWnge9xjrQDeGFIIFr42-5" style="edgeStyle=orthogonalEdgeStyle;rounded=0;orthogonalLoop=1;jettySize=auto;html=1;endArrow=classic;endFill=1;" edge="1" parent="OWnge9xjrQDeGFIIFr42-1" source="OWnge9xjrQDeGFIIFr42-15" target="OWnge9xjrQDeGFIIFr42-20">
          <mxGeometry relative="1" as="geometry">
            <Array as="points">
              <mxPoint x="180" y="340" />
              <mxPoint x="400" y="340" />
            </Array>
          </mxGeometry>
        </mxCell>
        <mxCell id="OWnge9xjrQDeGFIIFr42-6" value="Lane 1" style="swimlane;html=1;startSize=20;horizontal=0;" vertex="1" parent="OWnge9xjrQDeGFIIFr42-1">
          <mxGeometry x="20" width="430" height="120" as="geometry">
            <mxRectangle x="20" width="430" height="30" as="alternateBounds" />
          </mxGeometry>
        </mxCell>
        <mxCell id="OWnge9xjrQDeGFIIFr42-7" value="" style="edgeStyle=orthogonalEdgeStyle;rounded=0;orthogonalLoop=1;jettySize=auto;html=1;" edge="1" parent="OWnge9xjrQDeGFIIFr42-6" source="OWnge9xjrQDeGFIIFr42-8" target="OWnge9xjrQDeGFIIFr42-9">
          <mxGeometry relative="1" as="geometry" />
        </mxCell>
        <mxCell id="OWnge9xjrQDeGFIIFr42-8" value="" style="ellipse;whiteSpace=wrap;html=1;" vertex="1" parent="OWnge9xjrQDeGFIIFr42-6">
          <mxGeometry x="40" y="40" width="40" height="40" as="geometry" />
        </mxCell>
        <mxCell id="OWnge9xjrQDeGFIIFr42-9" value="" style="rounded=1;whiteSpace=wrap;html=1;fontFamily=Helvetica;fontSize=12;fontColor=#000000;align=center;" vertex="1" parent="OWnge9xjrQDeGFIIFr42-6">
          <mxGeometry x="120" y="30" width="80" height="60" as="geometry" />
        </mxCell>
        <mxCell id="OWnge9xjrQDeGFIIFr42-10" value="" style="edgeStyle=orthogonalEdgeStyle;rounded=0;orthogonalLoop=1;jettySize=auto;html=1;endArrow=classic;endFill=1;" edge="1" parent="OWnge9xjrQDeGFIIFr42-6" source="OWnge9xjrQDeGFIIFr42-11" target="OWnge9xjrQDeGFIIFr42-12">
          <mxGeometry relative="1" as="geometry" />
        </mxCell>
        <mxCell id="OWnge9xjrQDeGFIIFr42-11" value="" style="rounded=0;whiteSpace=wrap;html=1;fontFamily=Helvetica;fontSize=12;fontColor=#000000;align=center;" vertex="1" parent="OWnge9xjrQDeGFIIFr42-6">
          <mxGeometry x="240" y="30" width="80" height="60" as="geometry" />
        </mxCell>
        <mxCell id="OWnge9xjrQDeGFIIFr42-12" value="" style="ellipse;whiteSpace=wrap;html=1;" vertex="1" parent="OWnge9xjrQDeGFIIFr42-6">
          <mxGeometry x="360" y="40" width="40" height="40" as="geometry" />
        </mxCell>
        <mxCell id="OWnge9xjrQDeGFIIFr42-13" value="Lane 2" style="swimlane;html=1;startSize=20;horizontal=0;" vertex="1" parent="OWnge9xjrQDeGFIIFr42-1">
          <mxGeometry x="20" y="120" width="430" height="120" as="geometry" />
        </mxCell>
        <mxCell id="OWnge9xjrQDeGFIIFr42-14" value="" style="edgeStyle=orthogonalEdgeStyle;rounded=0;orthogonalLoop=1;jettySize=auto;html=1;endArrow=classic;endFill=1;" edge="1" parent="OWnge9xjrQDeGFIIFr42-13" source="OWnge9xjrQDeGFIIFr42-15" target="OWnge9xjrQDeGFIIFr42-16">
          <mxGeometry relative="1" as="geometry" />
        </mxCell>
        <mxCell id="OWnge9xjrQDeGFIIFr42-15" value="" style="rounded=0;whiteSpace=wrap;html=1;fontFamily=Helvetica;fontSize=12;fontColor=#000000;align=center;" vertex="1" parent="OWnge9xjrQDeGFIIFr42-13">
          <mxGeometry x="120" y="30" width="80" height="60" as="geometry" />
        </mxCell>
        <mxCell id="OWnge9xjrQDeGFIIFr42-16" value="" style="rhombus;whiteSpace=wrap;html=1;fontFamily=Helvetica;fontSize=12;fontColor=#000000;align=center;" vertex="1" parent="OWnge9xjrQDeGFIIFr42-13">
          <mxGeometry x="260" y="40" width="40" height="40" as="geometry" />
        </mxCell>
        <mxCell id="OWnge9xjrQDeGFIIFr42-27" value="Lane 3" style="swimlane;html=1;startSize=20;horizontal=0;" vertex="1" parent="OWnge9xjrQDeGFIIFr42-1">
          <mxGeometry x="20" y="240" width="430" height="120" as="geometry" />
        </mxCell>
        <mxCell id="OWnge9xjrQDeGFIIFr42-28" value="" style="edgeStyle=orthogonalEdgeStyle;rounded=0;orthogonalLoop=1;jettySize=auto;html=1;endArrow=classic;endFill=1;" edge="1" parent="OWnge9xjrQDeGFIIFr42-27" source="OWnge9xjrQDeGFIIFr42-29" target="OWnge9xjrQDeGFIIFr42-30">
          <mxGeometry relative="1" as="geometry" />
        </mxCell>
        <mxCell id="OWnge9xjrQDeGFIIFr42-29" value="" style="rounded=0;whiteSpace=wrap;html=1;fontFamily=Helvetica;fontSize=12;fontColor=#000000;align=center;" vertex="1" parent="OWnge9xjrQDeGFIIFr42-27">
          <mxGeometry x="240" y="20" width="80" height="60" as="geometry" />
        </mxCell>
        <mxCell id="OWnge9xjrQDeGFIIFr42-30" value="" style="rhombus;whiteSpace=wrap;html=1;fontFamily=Helvetica;fontSize=12;fontColor=#000000;align=center;" vertex="1" parent="OWnge9xjrQDeGFIIFr42-27">
          <mxGeometry x="360" y="30" width="40" height="40" as="geometry" />
        </mxCell>
        <mxCell id="OWnge9xjrQDeGFIIFr42-17" value="Lane 3" style="swimlane;html=1;startSize=20;horizontal=0;" vertex="1" parent="OWnge9xjrQDeGFIIFr42-1">
          <mxGeometry x="20" y="360" width="430" height="120" as="geometry" />
        </mxCell>
        <mxCell id="OWnge9xjrQDeGFIIFr42-18" value="" style="edgeStyle=orthogonalEdgeStyle;rounded=0;orthogonalLoop=1;jettySize=auto;html=1;endArrow=classic;endFill=1;" edge="1" parent="OWnge9xjrQDeGFIIFr42-17" source="OWnge9xjrQDeGFIIFr42-19" target="OWnge9xjrQDeGFIIFr42-20">
          <mxGeometry relative="1" as="geometry" />
        </mxCell>
        <mxCell id="OWnge9xjrQDeGFIIFr42-19" value="" style="rounded=0;whiteSpace=wrap;html=1;fontFamily=Helvetica;fontSize=12;fontColor=#000000;align=center;" vertex="1" parent="OWnge9xjrQDeGFIIFr42-17">
          <mxGeometry x="240" y="20" width="80" height="60" as="geometry" />
        </mxCell>
        <mxCell id="OWnge9xjrQDeGFIIFr42-20" value="" style="rhombus;whiteSpace=wrap;html=1;fontFamily=Helvetica;fontSize=12;fontColor=#000000;align=center;" vertex="1" parent="OWnge9xjrQDeGFIIFr42-17">
          <mxGeometry x="360" y="30" width="40" height="40" as="geometry" />
        </mxCell>
      </root>
    </mxGraphModel>
  </diagram>
</mxfile>
